<?xml version="1.0" encoding="utf-8"?>
<!-- Generator: Adobe Illustrator 24.0.0, SVG Export Plug-In . SVG Version: 6.00 Build 0)  -->
<svg version="1.1" id="Layer_1" xmlns="http://www.w3.org/2000/svg" xmlns:xlink="http://www.w3.org/1999/xlink" x="0px" y="0px"
	 width="448px" height="336px" viewBox="0 0 448 336" style="enable-background:new 0 0 448 336;" xml:space="preserve">
<style type="text/css">
	.st0{fill:#57068C;}
	.st1{fill:#FFFFFF;}
</style>
<path class="st0" d="M0,0h448v336H0V0z"/>
<g>
	<path class="st1" d="M262.9,155.4c7.1-10.4,8.7-24.1,8.7-34.2l0,0c0,0-3.5,8.1-11.1,12.8c-6.3,3.9-14.1,7.4-19.1,11.5
		c-7.6,6.3-11.6,14.3-13.2,24.9c1.4,0.3,3.8,0.2,6.2,0.2C245.1,170.6,255.9,165.6,262.9,155.4z"/>
	<path class="st1" d="M253.4,103.5c-2.3,11.7-15.8,18.3-23.1,27.1c-4.4,5.4-9.6,12.7-9.6,23.3c0,7,4.3,15.7,4.3,15.7
		c2.1-29.6,30.9-33.2,33-38.9c0.7-1.6,1.2-3.4,1.2-5.8C259.2,120.9,258.1,110,253.4,103.5z"/>
	<rect x="206.6" y="174.3" class="st1" width="31.4" height="9.3"/>
	<polygon class="st1" points="224.5,247.5 231.6,187.1 231.5,187.1 	"/>
	<polygon class="st1" points="231.3,89.3 231.3,89.3 231.3,89.3 	"/>
	<path class="st1" d="M231.3,89.3c-2.5,10.8-17.7,26-17.7,26c-21.7,24.3-16.2,43.6,8,54c0,0-4-6.1-4-16.3c0-12.7,9.5-24.1,21.1-35.1
		C238.7,106.9,234.4,94.6,231.3,89.3z"/>
	<path class="st1" d="M213.3,187.2l7.1,60.3c0,0.3,0.2,0.5,0.4,0.7c0,0.1,0.1,0.1,0.2,0.2c0.2,0.2,0.3,0.3,0.6,0.4
		c0,0.1,0.1,0.1,0.2,0.1c0.1,0,0.1,0,0.2,0s0.3,0,0.4,0c0.1,0,0.3-0.1,0.5-0.1c0.1,0,0.2-0.1,0.3-0.1c0.2,0,0.4-0.2,0.6-0.3
		c0.1,0,0.2-0.1,0.3-0.2c0.1-0.1,0.1-0.2,0.2-0.3c0.1-0.1,0.2-0.3,0.2-0.5l7-60.3l-8.6,0.1H213.3z"/>
	<path class="st1" d="M220.9,248.3C220.9,248.4,220.9,248.4,220.9,248.3C220.9,248.4,220.9,248.4,220.9,248.3z"/>
	<path class="st1" d="M220.7,248.2c0,0.1,0.1,0.1,0.2,0.1C220.8,248.3,220.8,248.3,220.7,248.2z"/>
	<path class="st1" d="M220.6,248.2c-0.1-0.2-0.3-0.5-0.4-0.7C220.3,247.8,220.5,248,220.6,248.2z"/>
	<path class="st1" d="M215.1,170.3c-33-18.3-11.4-46.5-11.5-46.7c0.9-4.1-5.9-16.8-5.9-16.8s0,2.9-2.1,8c-2.5,5.8-6.9,9.6-9.8,16.4
		c-2.3,5.3-2.7,10.3-2.8,12.3c0,0.5,0,0.9,0,0.9C183,172.6,215.3,170.3,215.1,170.3z"/>
</g>
</svg>
